<svg width="25" height="26" viewBox="0 0 25 26" fill="none" xmlns="http://www.w3.org/2000/svg">
<path d="M12.5 3.8999C13.5355 3.8999 14.375 4.77295 14.375 5.8499C14.375 6.92686 13.5355 7.7999 12.5 7.7999C11.4645 7.7999 10.625 6.92686 10.625 5.8499C10.625 4.77295 11.4645 3.8999 12.5 3.8999Z" fill="#F6F6F6"/>
<path d="M12.5 11.0499C13.5355 11.0499 14.375 11.9229 14.375 12.9999C14.375 14.0769 13.5355 14.9499 12.5 14.9499C11.4645 14.9499 10.625 14.0769 10.625 12.9999C10.625 11.9229 11.4645 11.0499 12.5 11.0499Z" fill="#F6F6F6"/>
<path d="M14.375 20.1499C14.375 19.0729 13.5355 18.1999 12.5 18.1999C11.4645 18.1999 10.625 19.0729 10.625 20.1499C10.625 21.2269 11.4645 22.0999 12.5 22.0999C13.5355 22.0999 14.375 21.2269 14.375 20.1499Z" fill="#F6F6F6"/>
</svg>
