<svg width="15" height="15" viewBox="0 0 15 15" fill="none" xmlns="http://www.w3.org/2000/svg">
<g clip-path="url(#clip0_364_3158)">
<path d="M14.1673 7.66664C14.1673 7.05174 14.1191 6.60302 14.0147 6.1377H7.22852V8.91304H11.2119C11.1316 9.60276 10.6979 10.6415 9.73417 11.3394L9.72066 11.4323L11.8663 13.1522L12.015 13.1676C13.3802 11.8629 14.1673 9.94343 14.1673 7.66664Z" fill="#4285F4"/>
<path d="M7.22842 14.979C9.17992 14.979 10.8182 14.3142 12.0149 13.1675L9.73407 11.3394C9.12373 11.7798 8.30455 12.0872 7.22842 12.0872C5.31706 12.0872 3.69481 10.7827 3.11652 8.97949L3.03176 8.98694L0.800662 10.7735L0.771484 10.8574C1.96006 13.3004 4.40149 14.979 7.22842 14.979Z" fill="#34A853"/>
<path d="M3.11599 8.979C2.96341 8.51368 2.8751 8.01507 2.8751 7.4999C2.8751 6.98468 2.96341 6.48613 3.10797 6.0208L3.10392 5.9217L0.844869 4.10645L0.770957 4.14282C0.281088 5.1566 0 6.29502 0 7.4999C0 8.70478 0.281088 9.84315 0.770957 10.8569L3.11599 8.979Z" fill="#FBBC05"/>
<path d="M7.22842 2.91318C8.58564 2.91318 9.50115 3.51977 10.0232 4.02669L12.0631 1.96591C10.8103 0.761035 9.17992 0.0214844 7.22842 0.0214844C4.40149 0.0214844 1.96006 1.7 0.771484 4.14298L3.10849 6.02096C3.69481 4.21779 5.31706 2.91318 7.22842 2.91318Z" fill="#EB4335"/>
</g>
<defs>
<clipPath id="clip0_364_3158">
<rect width="14.1667" height="15" fill="white"/>
</clipPath>
</defs>
</svg>
