<svg width="64" height="64" viewBox="0 0 64 64" fill="none" xmlns="http://www.w3.org/2000/svg">
<path d="M1.625 44.8125C2.52244 44.8125 3.25 45.5401 3.25 46.4375V53.625C3.25 57.5537 6.44631 60.75 10.375 60.75H17.5625C18.4599 60.75 19.1875 61.4776 19.1875 62.375C19.1875 63.2724 18.4599 64 17.5625 64H10.375C4.65425 64 0 59.3457 0 53.625V46.4375C6.54368e-09 45.5401 0.727562 44.8125 1.625 44.8125ZM62.375 44.8125C63.2724 44.8125 64 45.5401 64 46.4375V53.625C64 59.3457 59.3457 64 53.625 64H46.4375C45.5401 64 44.8125 63.2724 44.8125 62.375C44.8125 61.4776 45.5401 60.75 46.4375 60.75H53.625C57.5537 60.75 60.75 57.5537 60.75 53.625V46.4375C60.75 45.5401 61.4776 44.8125 62.375 44.8125ZM40.9238 44.8232C41.6085 44.1909 42.6762 44.2333 43.3086 44.918C43.9408 45.6026 43.8984 46.6694 43.2139 47.3018C40.1523 50.1296 36.1701 51.6875 32 51.6875C27.8298 51.6875 23.8467 50.1296 20.7852 47.3018C20.1009 46.6693 20.0592 45.6025 20.6914 44.918C21.3238 44.2334 22.3904 44.191 23.0752 44.8232C25.5113 47.0735 28.6812 48.3125 32 48.3125C35.3186 48.3125 38.4878 47.0733 40.9238 44.8232ZM33.6875 22.4375C34.6195 22.4375 35.375 23.193 35.375 24.125V36.125C35.375 38.5029 33.4404 40.4375 31.0625 40.4375H29.6875C28.7555 40.4375 28 39.682 28 38.75C28 37.818 28.7555 37.0625 29.6875 37.0625H31.0625C31.5794 37.0625 32 36.6419 32 36.125V24.125C32 23.193 32.7555 22.4375 33.6875 22.4375ZM18.9688 22.4375C19.8489 22.4375 20.5625 23.1511 20.5625 24.0312V28.8438C20.5625 29.7239 19.8489 30.4375 18.9688 30.4375C18.0886 30.4375 17.375 29.7239 17.375 28.8438V24.0312C17.375 23.1511 18.0886 22.4375 18.9688 22.4375ZM45.4062 22.4375C46.2864 22.4375 47 23.1511 47 24.0312V28.8438C47 29.7239 46.2864 30.4375 45.4062 30.4375C44.5261 30.4375 43.8125 29.7239 43.8125 28.8438V24.0312C43.8125 23.1511 44.5261 22.4375 45.4062 22.4375ZM17.5625 0C18.4599 0 19.1875 0.727562 19.1875 1.625C19.1875 2.52244 18.4599 3.25 17.5625 3.25H10.375C6.44631 3.25 3.25 6.44625 3.25 10.375V17.5625C3.25 18.4599 2.52244 19.1875 1.625 19.1875C0.727562 19.1875 0 18.4599 0 17.5625V10.375C4.1927e-08 4.65419 4.65425 4.19256e-08 10.375 0H17.5625ZM53.625 0C59.3457 0 64 4.65419 64 10.375V17.5625C64 18.4599 63.2724 19.1875 62.375 19.1875C61.4776 19.1875 60.75 18.4599 60.75 17.5625V10.375C60.75 6.44625 57.5537 3.25 53.625 3.25H46.4375C45.5401 3.25 44.8125 2.52244 44.8125 1.625C44.8125 0.727562 45.5401 6.54363e-09 46.4375 0H53.625Z" fill="black"/>
</svg>
